<?xml version="1.0" encoding="UTF-8"?>
<svg xmlns="http://www.w3.org/2000/svg" version="1.1" viewBox="0 0 30 30">
  <defs>
    <style>
      .cls-1 {
        fill: #848a98;
        fill-rule: evenodd;
        stroke: #848a98;
        stroke-miterlimit: 10;
        stroke-width: .2px;
      }
    </style>
  </defs>
  <!-- Generator: Adobe Illustrator 28.7.0, SVG Export Plug-In . SVG Version: 1.2.0 Build 136)  -->
  <g>
    <g id="al">
      <path class="cls-1" d="M6.2,7.4v15.2c0,.5.2,1,.6,1.3s.8.6,1.3.6h12.4c1.1,0,1.9-.9,1.9-1.9v-3.8c0,0,.1,0,.2,0l.4.2c.2,0,.4,0,.5,0,.3-.2.6-.5.9-.9.1-.1.1-.3,0-.5l-.2-.4c0-.2.1-.3.2-.5h.5c.2-.2.3-.3.3-.5,0-.4,0-.8,0-1.2,0-.2-.2-.3-.3-.4h-.5c0-.3-.1-.5-.2-.6l.2-.4c0-.2,0-.4,0-.5-.2-.3-.5-.6-.9-.9-.1-.1-.3-.1-.5,0l-.4.2c0,0-.1,0-.2,0v-4.8c0-.5-.2-1-.6-1.3s-.8-.6-1.3-.6h-12.4c-.5,0-1,.2-1.3.6s-.6.8-.6,1.3ZM21.4,11.2v-1.9H7.2v13.3c0,.3,0,.5.3.7.2.2.4.3.7.3h12.4c.5,0,1-.4,1-1v-2.9c-.4,0-.7,0-1.1,0-.2,0-.3-.2-.4-.3v-.5c-.3,0-.5-.1-.6-.2l-.4.2c-.1,0-.2,0-.3,0v1.7c0,.8-.6,1.4-1.4,1.4h-5.8c-.4,0-.7-.1-1-.4-.5-.5-1.8-1.8-2.3-2.3-.3-.3-.4-.6-.4-1v-6.7c0-.8.6-1.4,1.4-1.4h8.1c.8,0,1.4.6,1.4,1.4v.3c.1,0,.2,0,.3,0l.4.2c.2,0,.3-.1.5-.2v-.5c.2-.2.3-.3.5-.3.4,0,.7,0,1.1,0h0ZM17.6,12.8v-1.1c0-.3-.2-.5-.5-.5h-8.1c-.3,0-.5.2-.5.5v6.2h1.9c.8,0,1.4.6,1.4,1.4v1.9h5.2c.3,0,.5-.2.5-.5v-2.5s0,0-.1-.1c-.1-.1-.1-.3,0-.5l.2-.4c0-.2-.1-.3-.2-.5h-.5c-.2-.2-.3-.3-.3-.5,0-.4,0-.8,0-1.2,0-.2.2-.3.3-.4h.5c0-.3.1-.5.2-.6l-.2-.4c0-.2,0-.4,0-.5,0,0,0,0,.1-.1h0ZM8.8,18.8l2.2,2.2v-1.7c0-.3-.2-.5-.5-.5h-1.7ZM13.1,18.8h2.6c.3,0,.5-.2.5-.5s-.2-.5-.5-.5h-2.6c-.3,0-.5.2-.5.5s.2.5.5.5ZM21.1,12.2v.4c.2.2.3.3.5.3.3,0,.5.2.7.3.1,0,.3,0,.5,0l.4-.2c0,0,.2.2.3.3l-.2.4c0,.1,0,.3,0,.5.1.2.2.5.3.7,0,.2.2.3.3.3h.4c0,.3,0,.4,0,.5h-.4c-.2.2-.3.3-.3.5,0,.3-.2.5-.3.7,0,.1,0,.3,0,.5l.2.4c0,0-.2.2-.3.3l-.4-.2c-.1,0-.3,0-.5,0-.2.1-.5.2-.7.3-.2,0-.3.2-.3.3v.4c-.3,0-.4,0-.5,0v-.4c-.2-.2-.3-.3-.5-.3-.3,0-.5-.2-.7-.3-.1,0-.3,0-.5,0l-.4.2c0,0-.2-.2-.3-.3l.2-.4c0-.1,0-.3,0-.5-.1-.2-.2-.5-.3-.7,0-.2-.2-.3-.3-.3h-.4c0-.3,0-.4,0-.5h.4c.2-.2.3-.3.3-.5,0-.3.2-.5.3-.7,0-.1,0-.3,0-.5l-.2-.4c0,0,.2-.2.3-.3l.4.2c.1,0,.3,0,.5,0,.2-.1.5-.2.7-.3.2,0,.3-.2.3-.3v-.4c.3,0,.4,0,.5,0ZM20.9,13.6c-1.1,0-1.9.9-1.9,1.9s.9,1.9,1.9,1.9,1.9-.9,1.9-1.9-.9-1.9-1.9-1.9ZM10.5,16.4h5.2c.3,0,.5-.2.5-.5s-.2-.5-.5-.5h-5.2c-.3,0-.5.2-.5.5s.2.5.5.5ZM20.9,14.5c.5,0,1,.4,1,1s-.4,1-1,1-1-.4-1-1,.4-1,1-1ZM10.5,14.1h5.2c.3,0,.5-.2.5-.5s-.2-.5-.5-.5h-5.2c-.3,0-.5.2-.5.5s.2.5.5.5ZM21.4,8.3v-1c0-.3,0-.5-.3-.7-.2-.2-.4-.3-.7-.3h-12.4c-.3,0-.5,0-.7.3-.2.2-.3.4-.3.7v1h14.3,0ZM20,6.9c.3,0,.5.2.5.5s-.2.5-.5.5-.5-.2-.5-.5.2-.5.5-.5ZM18.6,6.9c.3,0,.5.2.5.5s-.2.5-.5.5-.5-.2-.5-.5.2-.5.5-.5ZM8.6,7.9h2.4c.3,0,.5-.2.5-.5s-.2-.5-.5-.5h-2.4c-.3,0-.5.2-.5.5s.2.5.5.5Z"/>
    </g>
  </g>
</svg>