<svg width="60" height="64" viewBox="0 0 60 64" fill="none" xmlns="http://www.w3.org/2000/svg">
<path fill-rule="evenodd" clip-rule="evenodd" d="M41 4H19V2C19 0.896 18.1 0 17 0C15.9 0 15 0.896 15 2V4.03101C11.12 4.27401 7.44994 5.922 4.68994 8.686C1.68994 11.687 0 15.757 0 20V48C0 52.243 1.68994 56.313 4.68994 59.314C7.68994 62.314 11.76 64 16 64H44C48.24 64 52.3101 62.314 55.3101 59.314C58.3101 56.313 60 52.243 60 48V20C60 15.757 58.3101 11.687 55.3101 8.686C52.5501 5.922 48.88 4.27401 45 4.03101V2C45 0.896 44.1 0 43 0C41.9 0 41 0.896 41 2V4ZM41 40C44.31 40 47 42.689 47 46C47 49.311 44.31 52 41 52C37.69 52 35 49.311 35 46C35 42.689 37.69 40 41 40ZM11.5901 47.414L15.5901 51.414C16.3701 52.195 17.6299 52.195 18.4099 51.414L26.4099 43.414C27.1999 42.634 27.1999 41.366 26.4099 40.586C25.6299 39.805 24.3701 39.805 23.5901 40.586L17 47.172L14.4099 44.586C13.6299 43.805 12.3701 43.805 11.5901 44.586C10.8001 45.366 10.8001 46.634 11.5901 47.414ZM33.5901 27.414L37.5901 31.414C38.3701 32.195 39.6299 32.195 40.4099 31.414L48.4099 23.414C49.1999 22.634 49.1999 21.366 48.4099 20.586C47.6299 19.805 46.3701 19.805 45.5901 20.586L39 27.172L36.4099 24.586C35.6299 23.805 34.3701 23.805 33.5901 24.586C32.8001 25.366 32.8001 26.634 33.5901 27.414ZM19 20C22.31 20 25 22.689 25 26C25 29.311 22.31 32 19 32C15.69 32 13 29.311 13 26C13 22.689 15.69 20 19 20Z" fill="#009512"/>
</svg>
