<?xml version="1.0" encoding="UTF-8"?>
<svg xmlns="http://www.w3.org/2000/svg" version="1.1" viewBox="0 0 64 62">
  <defs>
    <style>
      .cls-1 {
        fill: #fff;
        fill-rule: evenodd;
      }
    </style>
  </defs>
  <!-- Generator: Adobe Illustrator 28.6.0, SVG Export Plug-In . SVG Version: 1.2.0 Build 709)  -->
  <g>
    <g id="Layer_1">
      <path class="cls-1" d="M44.9,13.5c0-.2,0-.4.2-.6.1-.1.3-.2.6-.2h3.2c.2,0,.4,0,.6.2.1.1.2.3.2.6s0,.4-.2.6c-.1.1-.3.2-.6.2h-3.2c-.2,0-.4,0-.6-.2-.1-.1-.2-.3-.2-.6ZM34.8,7.1c1.4,0,2.7.4,3.8,1.2,1.1.8,2,1.8,2.5,3.1.5,1.3.7,2.6.4,4s-.9,2.6-1.9,3.5c-1,1-2.2,1.6-3.5,1.9-1.3.3-2.7.1-4-.4-1.3-.5-2.3-1.4-3.1-2.5-.8-1.1-1.2-2.5-1.2-3.8,0-1.8.7-3.6,2-4.9,1.3-1.3,3.1-2,4.9-2ZM34.8,22.5c1.7,0,3.3-.5,4.7-1.4,1.4-.9,2.5-2.2,3.1-3.8.6-1.5.8-3.2.5-4.9-.3-1.6-1.1-3.1-2.3-4.3-1.2-1.2-2.7-2-4.3-2.3-1.6-.3-3.4-.2-4.9.5-1.6.6-2.9,1.7-3.8,3.1-.9,1.4-1.4,3-1.4,4.7,0,2.2.9,4.4,2.5,6,1.6,1.6,3.7,2.5,6,2.5ZM33.2,12.1c0,.4.3.8.8,1v-2c-.6.2-.8.6-.8,1ZM36.5,15.9c0-.4-.3-.8-.8-1v2c.2,0,.3-.2.5-.3.1,0,.2-.2.2-.3,0-.1,0-.3,0-.4ZM33.2,15.9c0-.2,0-.4-.2-.6-.1-.1-.3-.2-.6-.2-.2,0-.4,0-.6.2-.1.1-.2.3-.2.6,0,1.3,1,2.3,2.4,2.6v.2c0,.2,0,.4.2.6.1.1.3.2.6.2s.4,0,.6-.2c.1-.1.2-.3.2-.6v-.2c.6,0,1.1-.3,1.5-.7.3-.2.5-.5.6-.9.1-.3.2-.7.2-1,0-1.2-.8-2.3-2.4-2.6v-2.2c.5.2.8.6.8,1s0,.4.2.6c.1.1.3.2.6.2s.4,0,.6-.2c.1-.1.2-.3.2-.6,0-1.3-1-2.3-2.4-2.6v-.2c0-.2,0-.4-.2-.6-.1-.1-.3-.2-.6-.2s-.4,0-.6.2c-.1.1-.2.3-.2.6v.2c-.6,0-1.1.3-1.5.7-.3.2-.5.5-.6.9-.1.3-.2.7-.2,1,0,1.2.8,2.3,2.4,2.6v2.2c-.5-.2-.8-.6-.8-1h0ZM20,13.5c0-.1,0-.2,0-.3,0,0,0-.2.2-.3,0,0,.2-.1.3-.2,0,0,.2,0,.3,0h3.2c.2,0,.4,0,.6.2.1.1.2.3.2.6s0,.4-.2.6c-.1.1-.3.2-.6.2h-3.2c-.1,0-.2,0-.3,0,0,0-.2,0-.3-.2,0,0-.1-.2-.2-.3,0,0,0-.2,0-.3ZM16.9,7.1v13.8h.4c.6.2,1.2.4,1.6.9.4.4.7,1,.8,1.6v.4h30.1v-.4c.2-.6.5-1.2.9-1.6.4-.4,1-.7,1.6-.8h.4V7.1h-.4c-.6-.2-1.2-.4-1.6-.9-.4-.4-.7-1-.8-1.6v-.4h-30.1v.4c-.2.6-.5,1.2-.9,1.6s-1,.7-1.6.8h-.4ZM17.1,22.5c.3,0,.5.2.7.4.2.2.3.5.4.7l.2,1.1c0,.2.1.4.3.5.1.1.3.2.5.2h31.4c.2,0,.4,0,.5-.2.1-.1.2-.3.3-.5l.2-1.1c0-.3.2-.5.4-.7.2-.2.5-.3.7-.4l1.1-.2c.2,0,.4-.1.5-.3.1-.1.2-.3.2-.5V6.5c0-.2,0-.4-.2-.5-.1-.1-.3-.2-.5-.3l-1.1-.2c-.3,0-.5-.2-.7-.4-.2-.2-.3-.5-.4-.7l-.2-1.1c0-.2-.1-.4-.3-.5s-.3-.2-.5-.2h-31.4c-.2,0-.4,0-.5.2-.1.1-.2.3-.3.5l-.2,1.1c0,.3-.2.5-.4.7-.2.2-.5.3-.7.4l-1.1.2c-.2,0-.4.1-.5.3-.1.1-.2.3-.2.5v15.1c0,.2,0,.4.2.5.1.1.3.2.5.3l1.1.2ZM54,28c.8,0,1.5-.3,2.1-.9.6-.6.9-1.3.9-2.1V3c0-.8-.3-1.5-.9-2.1C55.6.3,54.8,0,54,0H15.7c-.8,0-1.5.3-2.1.9-.6.6-.9,1.3-.9,2.1v22.1c0,.8.3,1.5.9,2.1s1.3.9,2.1.9h38.4ZM8.6,43.5c0-.1,0-.3-.1-.4s-.2-.2-.3-.3c-.1,0-.3,0-.4,0-.1,0-.3,0-.3.2s-.2.2-.2.3c0,.1,0,.3,0,.4,0,.1.1.2.3.3.1,0,.2.1.4.1,0,0,.2,0,.3,0,0,0,.2,0,.2-.1,0,0,.1-.1.1-.2,0,0,0-.2,0-.3ZM5.7,43.5c0-.4.1-.9.4-1.3.2-.4.6-.7,1-.8.4-.2.9-.2,1.3-.1.4,0,.8.3,1.2.6.3.3.5.7.6,1.2,0,.4,0,.9-.1,1.3-.2.4-.5.8-.8,1-.4.2-.8.4-1.3.4-.6,0-1.2-.2-1.6-.7-.4-.4-.7-1-.7-1.6h0ZM62.9,34.7c.7-.7,1.1-1.6,1.1-2.6,0-1-.4-1.9-1.1-2.6-.7-.7-1.6-1.1-2.6-1.1-1,0-1.9.4-2.6,1.1l-8.5,8.5c0,1.3-.7,2.5-1.6,3.3s-2.2,1.4-3.4,1.4h-12.8c-.2,0-.4,0-.5-.2-.1-.1-.2-.3-.2-.6s0-.4.2-.6c.1-.1.3-.2.5-.2h12.8c.5,0,.9,0,1.3-.3.4-.2.8-.4,1.1-.8.3-.3.6-.7.8-1.1.2-.4.3-.9.3-1.3s0-.9-.3-1.3c-.2-.4-.4-.8-.8-1.1-.3-.3-.7-.6-1.1-.8-.4-.2-.9-.3-1.3-.3h-12.8c-.2,0-.3,0-.4-.1-2.2-1.5-8-2-13.2-.5-2.5.7-5.7,2.2-7.1,5l10.5,14.2,2.8-2c.7-.5,1.5-.8,2.4-.8h18.9c.7,0,1.3-.1,2-.4.6-.3,1.2-.6,1.7-1.1l13.9-13.9ZM13.2,62L0,44.1l8.3-6.1,13.2,17.9-8.3,6.1Z"/>
    </g>
  </g>
</svg>