<?xml version="1.0" encoding="UTF-8"?>
<svg id="Layer_1" data-name="Layer 1" xmlns="http://www.w3.org/2000/svg" version="1.1" viewBox="0 0 30 30">
  <defs>
    <style>
      .cls-1 {
        stroke: #848a98;
        stroke-linecap: round;
        stroke-linejoin: round;
        stroke-width: 1.3px;
      }

      .cls-1, .cls-2 {
        fill: none;
      }

      .cls-2 {
        stroke-width: 0px;
      }
    </style>
  </defs>
  <rect class="cls-2" y="0" width="30" height="30"/>
  <g>
    <g>
      <polyline class="cls-1" points="7 7.9 7 11.3 9.3 11.3"/>
      <path class="cls-1" d="M7,11.3c1.4-3,4.4-5.1,7.9-5.1s8.1,3.3,8.7,7.7"/>
    </g>
    <g>
      <polyline class="cls-1" points="23 22.1 23 18.7 20.7 18.7"/>
      <path class="cls-1" d="M23,18.7c-1.4,3-4.4,5.1-7.9,5.1s-8.1-3.3-8.7-7.7"/>
    </g>
    <circle class="cls-1" cx="13.7" cy="12.7" r="1.9"/>
    <path class="cls-1" d="M16.6,19.1v-1.2c0-1.1-.9-1.9-1.9-1.9h-2c-1.1,0-1.9.9-1.9,1.9v1.2"/>
    <polyline class="cls-1" points="20.7 13.7 18.6 15.8 17.5 14.6"/>
  </g>
</svg>