<svg width="66" height="60" viewBox="0 0 66 60" fill="none" xmlns="http://www.w3.org/2000/svg">
<path d="M49.9853 0.168701C45.905 0.172986 41.9931 1.79577 39.1079 4.68097C36.2227 7.56617 34.5999 11.4781 34.5956 15.5584C35.4396 35.9752 64.5342 35.9692 65.375 15.5583C65.3707 11.478 63.7479 7.5661 60.8627 4.68093C57.9775 1.79576 54.0656 0.172986 49.9853 0.168701ZM49.9853 24.8662C48.7323 24.8706 47.4921 24.6146 46.3431 24.1146C46.6727 24.8596 46.589 25.7269 45.7303 26.0225C45.4359 26.1102 45.1189 26.0796 44.8468 25.937C44.5746 25.7945 44.3689 25.5513 44.2734 25.2593C44.1943 24.9736 43.049 21.5229 43.094 21.3281C43.0975 21.0486 43.2009 20.7797 43.3854 20.5697C43.5699 20.3598 43.8233 20.2228 44.1 20.1834L47.8347 19.7093C48.1368 19.6772 48.4394 19.7648 48.6775 19.9534C48.9157 20.142 49.0703 20.4166 49.1082 20.718C49.146 21.0194 49.0641 21.3236 48.88 21.5653C48.6959 21.8069 48.4244 21.9667 48.1238 22.0103L47.4994 22.0912C52.4191 24.1722 58.084 19.3308 56.7839 14.1476C56.7216 13.8479 56.7804 13.5356 56.9475 13.279C57.1146 13.0225 57.3764 12.8425 57.6758 12.7784C57.9752 12.7142 58.2878 12.7712 58.5453 12.9368C58.8029 13.1024 58.9844 13.3631 59.0503 13.6621C59.3269 15.0119 59.3012 16.4063 58.9749 17.7449C58.6487 19.0836 58.03 20.3334 57.1633 21.4046C56.2967 22.4758 55.2035 23.3417 53.9624 23.9402C52.7214 24.5387 51.3631 24.855 49.9853 24.8662ZM53.9859 7.24495L53.8125 6.42401C53.757 6.12641 53.8202 5.81891 53.9887 5.56738C54.1572 5.31585 54.4174 5.14029 54.7138 5.07832C55.0101 5.01635 55.3189 5.07289 55.574 5.23583C55.8292 5.39877 56.0103 5.65516 56.0787 5.95006L56.7956 9.43026C56.8624 9.60473 56.8866 9.79258 56.8664 9.97828C56.8461 10.164 56.7819 10.3422 56.679 10.4981C56.5762 10.6541 56.4377 10.7833 56.275 10.8751C56.1123 10.9668 55.9301 11.0185 55.7434 11.0259L51.9856 11.13C51.7069 11.1316 51.437 11.0326 51.2255 10.8512C51.014 10.6697 50.8751 10.418 50.8343 10.1423C50.7935 9.86665 50.8536 9.58551 51.0035 9.3506C51.1535 9.11569 51.3832 8.94279 51.6504 8.8637C50.543 8.60126 49.3882 8.61319 48.2865 8.89845C47.1847 9.18371 46.1692 9.73367 45.3283 10.5006C44.4874 11.2674 43.8464 12.2281 43.4611 13.299C43.0758 14.3698 42.9578 15.5186 43.1174 16.6455C43.1401 16.7958 43.1331 16.9492 43.0966 17.0968C43.0601 17.2444 42.9948 17.3833 42.9046 17.5057C42.8144 17.6281 42.701 17.7316 42.5708 17.8101C42.4406 17.8887 42.2963 17.9408 42.1459 17.9636C41.8423 18.0096 41.5329 17.933 41.2857 17.7509C41.0385 17.5687 40.8738 17.2958 40.8278 16.9921C39.5964 9.7327 47.5488 3.98132 53.9859 7.24495Z" fill="#009512"/>
<path d="M32.3409 23.9991C32.9835 24.0003 33.6145 23.8285 34.1678 23.5019C32.4691 20.1197 31.9016 16.2813 32.5491 12.5522H6.04781C4.60842 12.5549 3.22892 13.1287 2.2122 14.1476C1.19548 15.1665 0.624633 16.5472 0.625 17.9866V23.9991H32.3409ZM27.1494 19.4319H8.62625C8.32329 19.4263 8.03462 19.3021 7.82235 19.0858C7.61007 18.8696 7.49115 18.5787 7.49116 18.2756C7.49118 17.9726 7.61012 17.6817 7.8224 17.4655C8.03469 17.2493 8.32337 17.125 8.62633 17.1194H27.1494C27.4529 17.1241 27.7425 17.248 27.9555 17.4644C28.1685 17.6807 28.2878 17.9721 28.2878 18.2757C28.2878 18.5793 28.1685 18.8707 27.9555 19.087C27.7425 19.3033 27.4529 19.4272 27.1494 19.4319Z" fill="#009512"/>
<path d="M27.4616 40.8224C28.465 41.5686 29.7053 41.925 30.9517 41.8253C32.1982 41.7257 33.3661 41.1767 34.2382 40.2806C35.1103 39.3844 35.6273 38.202 35.693 36.9533C35.7587 35.7045 35.3687 34.4744 34.5955 33.4917C29.4877 27.7667 21.6111 35.8881 27.4616 40.8224Z" fill="#009512"/>
<path d="M20.6281 52.2693H40.5272C40.6675 52.274 40.8072 52.2486 40.9368 52.1947C41.0665 52.1409 41.1831 52.0599 41.2787 51.9571C41.3563 51.8522 41.4099 51.7316 41.4358 51.6038C41.4618 51.476 41.4595 51.344 41.4291 51.2171C41.0516 49.3856 40.2164 47.6795 39.0012 46.2581C37.786 44.8367 36.2306 43.7463 34.48 43.0887C33.3021 43.7997 31.9519 44.1745 30.576 44.1724C29.2002 44.1704 27.8511 43.7916 26.6753 43.0771C24.9193 43.7326 23.3595 44.8253 22.1436 46.2517C20.9276 47.6781 20.0956 49.3911 19.7263 51.2287C19.7048 51.3584 19.7123 51.4912 19.748 51.6178C19.7837 51.7443 19.8469 51.8614 19.933 51.9607C20.019 52.06 20.126 52.1392 20.2461 52.1925C20.3663 52.2459 20.4967 52.2721 20.6281 52.2693Z" fill="#009512"/>
<path d="M49.9853 33.2606C47.0936 33.259 44.2462 32.5488 41.6924 31.1923C39.1386 29.8358 36.956 27.8741 35.3356 25.479C34.432 26.0244 33.3964 26.3123 32.3409 26.3115H0.625V54.4199C0.627491 55.8563 1.19999 57.233 2.21676 58.2476C3.23352 59.2622 4.61142 59.8318 6.04781 59.8312H55.1075C56.5439 59.8318 57.9218 59.2622 58.9386 58.2476C59.9553 57.233 60.5278 55.8563 60.5303 54.4199V29.7571C57.4896 32.0402 53.7877 33.2701 49.9853 33.2606ZM17.46 50.7662C17.8695 48.7461 18.7399 46.8478 20.0034 45.2193C21.2669 43.5908 22.8894 42.276 24.7444 41.3774C23.6815 40.0533 23.1059 38.4041 23.1141 36.7062C23.4178 26.8595 37.7314 26.8431 38.0297 36.7064C38.0293 38.4102 37.4459 40.0627 36.3762 41.389C38.2376 42.2806 39.8671 43.5912 41.1369 45.2181C42.4068 46.8451 43.2825 48.7441 43.6953 50.7662C43.7916 51.2263 43.7856 51.702 43.6777 52.1596C43.5698 52.6171 43.3627 53.0454 43.0709 53.414C42.7594 53.7843 42.3698 54.0811 41.93 54.283C41.4902 54.485 41.0111 54.587 40.5272 54.5818H20.6281C20.1559 54.5778 19.6903 54.4708 19.2637 54.2684C18.8372 54.0659 18.4599 53.7728 18.1583 53.4095C17.8566 53.0462 17.6379 52.6215 17.5173 52.1649C17.3967 51.7084 17.3771 51.2311 17.46 50.7662Z" fill="#009512"/>
</svg>
