<?xml version="1.0" encoding="UTF-8"?>
<svg xmlns="http://www.w3.org/2000/svg" version="1.1" viewBox="0 0 66 60">
  <defs>
    <style>
      .cls-1 {
        fill: #fff;
      }
    </style>
  </defs>
  <!-- Generator: Adobe Illustrator 28.6.0, SVG Export Plug-In . SVG Version: 1.2.0 Build 709)  -->
  <g>
    <g id="Layer_1">
      <path class="cls-1" d="M50,.2c-4.1,0-8,1.6-10.9,4.5-2.9,2.9-4.5,6.8-4.5,10.9.8,20.4,29.9,20.4,30.8,0,0-4.1-1.6-8-4.5-10.9C58,1.8,54.1.2,50,.2ZM50,24.9c-1.3,0-2.5-.3-3.6-.8.3.7.2,1.6-.6,1.9-.3,0-.6,0-.9,0-.3-.1-.5-.4-.6-.7,0-.3-1.2-3.7-1.2-3.9,0-.3.1-.5.3-.8.2-.2.4-.3.7-.4l3.7-.5c.3,0,.6,0,.8.2.2.2.4.5.4.8,0,.3,0,.6-.2.8-.2.2-.5.4-.8.4h-.6c4.9,2.2,10.6-2.7,9.3-7.9,0-.3,0-.6.2-.9.2-.3.4-.4.7-.5.3,0,.6,0,.9.2.3.2.4.4.5.7.3,1.3.3,2.7,0,4.1-.3,1.3-.9,2.6-1.8,3.7-.9,1.1-2,1.9-3.2,2.5-1.2.6-2.6.9-4,.9ZM54,7.2l-.2-.8c0-.3,0-.6.2-.9s.4-.4.7-.5c.3,0,.6,0,.9.2.3.2.4.4.5.7l.7,3.5c0,.2,0,.4,0,.5,0,.2,0,.4-.2.5-.1.2-.2.3-.4.4-.2,0-.3.1-.5.2h-3.8c-.3.1-.5,0-.8-.2-.2-.2-.4-.4-.4-.7,0-.3,0-.6.2-.8.1-.2.4-.4.6-.5-1.1-.3-2.3-.3-3.4,0-1.1.3-2.1.8-3,1.6-.8.8-1.5,1.7-1.9,2.8-.4,1.1-.5,2.2-.3,3.3,0,.2,0,.3,0,.5s-.1.3-.2.4c0,.1-.2.2-.3.3-.1,0-.3.1-.4.2-.3,0-.6,0-.9-.2-.2-.2-.4-.5-.5-.8-1.2-7.3,6.7-13,13.2-9.7Z"/>
      <path class="cls-1" d="M32.3,24c.6,0,1.3-.2,1.8-.5-1.7-3.4-2.3-7.2-1.6-10.9H6c-1.4,0-2.8.6-3.8,1.6-1,1-1.6,2.4-1.6,3.8v6h31.7ZM27.1,19.4H8.6c-.3,0-.6-.1-.8-.3-.2-.2-.3-.5-.3-.8,0-.3.1-.6.3-.8.2-.2.5-.3.8-.3h18.5c.3,0,.6.1.8.3.2.2.3.5.3.8s-.1.6-.3.8c-.2.2-.5.3-.8.3Z"/>
      <path class="cls-1" d="M27.5,40.8c1,.7,2.2,1.1,3.5,1,1.2,0,2.4-.6,3.3-1.5.9-.9,1.4-2.1,1.5-3.3,0-1.2-.3-2.5-1.1-3.5-5.1-5.7-13,2.4-7.1,7.3Z"/>
      <path class="cls-1" d="M20.6,52.3h19.9c.1,0,.3,0,.4,0,.1,0,.2-.1.3-.2,0-.1.1-.2.2-.4,0-.1,0-.3,0-.4-.4-1.8-1.2-3.5-2.4-5-1.2-1.4-2.8-2.5-4.5-3.2-1.2.7-2.5,1.1-3.9,1.1-1.4,0-2.7-.4-3.9-1.1-1.8.7-3.3,1.7-4.5,3.2-1.2,1.4-2,3.1-2.4,5,0,.1,0,.3,0,.4,0,.1,0,.2.2.3,0,0,.2.2.3.2.1,0,.3,0,.4,0Z"/>
      <path class="cls-1" d="M50,33.3c-2.9,0-5.7-.7-8.3-2.1-2.6-1.4-4.7-3.3-6.4-5.7-.9.5-1.9.8-3,.8H.6v28.1c0,1.4.6,2.8,1.6,3.8,1,1,2.4,1.6,3.8,1.6h49.1c1.4,0,2.8-.6,3.8-1.6,1-1,1.6-2.4,1.6-3.8v-24.7c-3,2.3-6.7,3.5-10.5,3.5ZM17.5,50.8c.4-2,1.3-3.9,2.5-5.5,1.3-1.6,2.9-2.9,4.7-3.8-1.1-1.3-1.6-3-1.6-4.7.3-9.8,14.6-9.9,14.9,0,0,1.7-.6,3.4-1.7,4.7,1.9.9,3.5,2.2,4.8,3.8,1.3,1.6,2.1,3.5,2.6,5.5,0,.5,0,.9,0,1.4-.1.5-.3.9-.6,1.3-.3.4-.7.7-1.1.9-.4.2-.9.3-1.4.3h-19.9c-.5,0-.9-.1-1.4-.3-.4-.2-.8-.5-1.1-.9-.3-.4-.5-.8-.6-1.2-.1-.5-.1-.9,0-1.4Z"/>
    </g>
  </g>
</svg>