<?xml version="1.0" encoding="UTF-8"?>
<svg xmlns="http://www.w3.org/2000/svg" version="1.1" viewBox="0 0 30 30">
  <defs>
    <style>
      .cls-1 {
        fill: #848a98;
        fill-rule: evenodd;
      }
    </style>
  </defs>
  <!-- Generator: Adobe Illustrator 28.7.0, SVG Export Plug-In . SVG Version: 1.2.0 Build 136)  -->
  <g>
    <g id="Layer_1">
      <g id="Icon">
        <path class="cls-1" d="M14.6,22.2h-7.5s0,0-.1,0c0,0,0,0,0-.1v-1.3c0-.7.5-1.4,1.3-1.9,1.4-1,3.7-1.6,6.3-1.6s.7-.3.7-.7-.3-.7-.7-.7c-2.9,0-5.5.7-7.1,1.8-1.2.8-1.9,1.9-1.9,3v1.3c0,.4.2.8.4,1,.3.3.7.4,1,.4h7.5c.4,0,.7-.3.7-.7s-.3-.7-.7-.7h0Z"/>
        <path class="cls-1" d="M14.6,5.6c-2.7,0-4.8,2.2-4.8,4.8s2.2,4.8,4.8,4.8,4.8-2.2,4.8-4.8-2.2-4.8-4.8-4.8ZM14.6,6.9c1.9,0,3.5,1.6,3.5,3.5s-1.6,3.5-3.5,3.5-3.5-1.6-3.5-3.5,1.6-3.5,3.5-3.5Z"/>
        <path class="cls-1" d="M19.8,16.7c-1.7,0-3.1,1.4-3.1,3.1s1.4,3.1,3.1,3.1,3.1-1.4,3.1-3.1-1.4-3.1-3.1-3.1ZM19.8,18c1,0,1.8.8,1.8,1.8s-.8,1.8-1.8,1.8-1.8-.8-1.8-1.8.8-1.8,1.8-1.8Z"/>
        <path class="cls-1" d="M20.5,17.3v-1.5c0-.4-.3-.7-.7-.7s-.7.3-.7.7v1.5c0,.4.3.7.7.7.4,0,.7-.3.7-.7h0Z"/>
        <path class="cls-1" d="M22,18.5l1-1c.3-.3.3-.7,0-.9-.3-.3-.7-.3-.9,0l-1,1c-.3.3-.3.7,0,.9.3.3.7.3.9,0h0Z"/>
        <path class="cls-1" d="M22.3,20.5h1.5c.4,0,.7-.3.7-.7s-.3-.7-.7-.7h-1.5c-.4,0-.7.3-.7.7,0,.4.3.7.7.7Z"/>
        <path class="cls-1" d="M21.1,22l1,1c.3.3.7.3.9,0,.3-.3.3-.7,0-.9l-1-1c-.3-.3-.7-.3-.9,0-.3.3-.3.7,0,.9h0Z"/>
        <path class="cls-1" d="M19.1,22.3v1.5c0,.4.3.7.7.7s.7-.3.7-.7v-1.5c0-.4-.3-.7-.7-.7-.4,0-.7.3-.7.7Z"/>
        <path class="cls-1" d="M17.6,21.1l-1,1c-.3.3-.3.7,0,.9.3.3.7.3.9,0l1-1c.3-.3.3-.7,0-.9-.3-.3-.7-.3-.9,0h0Z"/>
        <path class="cls-1" d="M17.3,19.1h-1.5c-.4,0-.7.3-.7.7s.3.7.7.7h1.5c.4,0,.7-.3.7-.7,0-.4-.3-.7-.7-.7Z"/>
        <path class="cls-1" d="M18.5,17.6l-1-1c-.3-.3-.7-.3-.9,0-.3.3-.3.7,0,.9l1,1c.3.3.7.3.9,0,.3-.3.3-.7,0-.9Z"/>
      </g>
    </g>
  </g>
</svg>