<?xml version="1.0" encoding="UTF-8"?>
<svg xmlns="http://www.w3.org/2000/svg" version="1.1" viewBox="0 0 30 30">
  <defs>
    <style>
      .cls-1 {
        fill: #848a98;
        stroke: #848a98;
        stroke-linecap: round;
        stroke-linejoin: round;
        stroke-width: .5px;
      }
    </style>
  </defs>
  <!-- Generator: Adobe Illustrator 28.7.0, SVG Export Plug-In . SVG Version: 1.2.0 Build 136)  -->
  <g>
    <g id="Layer_1">
      <g id="Layer_2">
        <g id="setting">
          <path class="cls-1" d="M20.3,13.2c-2.3,0-4.2-1.9-4.2-4.2s1.9-4.2,4.2-4.2,4.2,1.9,4.2,4.2h0c0,2.3-1.9,4.2-4.2,4.2ZM20.3,5.6c-1.9,0-3.4,1.5-3.4,3.4s1.5,3.4,3.4,3.4,3.4-1.5,3.4-3.4h0c0-1.9-1.5-3.4-3.4-3.4Z"/>
          <path class="cls-1" d="M20.6,11.7h-.6c-.1,0-.2,0-.3-.1l-.3-.4h-.5c-.1,0-.2,0-.3,0l-.4-.4c0,0-.1-.2-.1-.3v-.5s-.3-.3-.3-.3c0,0-.1-.2-.1-.3v-.6c0-.1,0-.2.1-.3l.4-.3v-.5c0-.1,0-.2,0-.3l.4-.4c0,0,.2-.1.3-.1h.5s.3-.3.3-.3c0,0,.2-.1.3-.1h.6c.1,0,.2,0,.3.1l.3.4h.5c.1,0,.2,0,.3,0l.4.4c0,0,.1.2.1.3v.5s.3.3.3.3c0,0,.1.2.1.3v.6c0,.1,0,.2-.1.3l-.4.3v.5c0,.1,0,.2,0,.3l-.4.4c0,0-.2.1-.3.1h-.5s-.3.3-.3.3c0,0-.2.1-.3.1ZM20.1,11h.3l.3-.4s0,0,.1-.1c0,0,0,0,0,0,0,0,.1,0,.2,0h.5s.2-.1.2-.1v-.5c0,0,0-.1,0-.2,0,0,0,0,0,0,0,0,0-.1.1-.1l.4-.3v-.3l-.4-.3s0,0-.1-.1c0,0,0,0,0,0,0,0,0-.1,0-.2v-.5s-.1-.2-.1-.2h-.5c0,0-.1,0-.2,0,0,0,0,0,0,0,0,0-.1,0-.1-.1l-.3-.4h-.3l-.3.4s0,0-.1.1c0,0,0,0,0,0,0,0-.1,0-.2,0h-.5s-.2.1-.2.1v.5c0,0,0,.1,0,.2,0,0,0,0,0,0,0,0,0,.1-.1.1l-.4.3v.3l.4.3s0,0,.1.1c0,0,0,0,0,0,0,0,0,.1,0,.2v.5s.1.2.1.2h.5c0,0,.1,0,.2,0,0,0,0,0,0,0,0,0,.1,0,.1.1l.3.4Z"/>
          <path class="cls-1" d="M20.3,10.1c-.6,0-1-.5-1-1s.5-1,1-1,1,.5,1,1-.5,1-1,1ZM20.3,8.7c-.2,0-.3.1-.3.3s.1.3.3.3.3-.1.3-.3c0-.2-.1-.3-.3-.3,0,0,0,0,0,0h0Z"/>
          <path class="cls-1" d="M21.3,23.3H7.7c-.9,0-1.7-.8-1.7-1.7v-7.6c0-.5.3-1,.7-1.4l1.4-1.1c.2-.1.4,0,.5,0,.1.2,0,.4,0,.5l-1.4,1.1c-.2.2-.4.5-.4.8v7.6c0,.5.4,1,1,1h13.6c.5,0,1-.4,1-1v-7.6c0-.3-.1-.6-.4-.8l-.5-.3c-.2-.1-.2-.4,0-.5.1-.1.3-.2.5,0l.5.3c.4.3.7.8.7,1.4v7.6c0,.9-.8,1.7-1.7,1.7h0Z"/>
          <path class="cls-1" d="M22.2,23c0,0-.2,0-.2,0l-5.8-4.2c-.2-.1-.2-.3,0-.5.1-.2.3-.2.5,0l5.8,4.2c.2.1.2.3,0,.5,0,0-.2.1-.3.1Z"/>
          <path class="cls-1" d="M6.8,23c-.2,0-.4-.2-.4-.4,0-.1,0-.2.1-.3l5.8-4.2c.2-.1.4,0,.5,0,.1.2,0,.4,0,.5l-5.8,4.2c0,0-.1,0-.2,0Z"/>
          <path class="cls-1" d="M14.5,19.9c-.4,0-.8-.1-1.1-.4l-7.2-5.8c-.2-.1-.2-.3,0-.5.1-.2.3-.2.5,0,0,0,0,0,0,0l7.2,5.8c.4.3.9.3,1.2,0l7.2-5.8c.2-.1.4-.1.5,0,.1.2.1.4,0,.5,0,0,0,0,0,0l-7.2,5.8c-.3.2-.7.4-1.1.4h0Z"/>
          <path class="cls-1" d="M20.6,15.3c-.2,0-.4-.2-.4-.4v-2.1c0-.2.2-.4.4-.4s.4.2.4.4v2.1c0,.2-.2.4-.4.4Z"/>
          <path class="cls-1" d="M8.4,15.3c-.2,0-.4-.2-.4-.4v-6.9c0-.9.8-1.7,1.7-1.7h7.6c.2,0,.4.2.4.4s-.2.4-.4.4h-7.6c-.5,0-1,.4-1,1v6.9c0,.2-.2.4-.4.4Z"/>
          <path class="cls-1" d="M14,8.9h-3.6c-.2,0-.4-.2-.4-.4s.2-.4.4-.4h3.6c.2,0,.4.2.4.4s-.2.4-.4.4Z"/>
          <path class="cls-1" d="M16.8,10.8h-6.4c-.2,0-.4-.2-.4-.4s.2-.4.4-.4h6.4c.2,0,.4.2.4.4s-.2.4-.4.4Z"/>
          <path class="cls-1" d="M18.6,12.8h-8.3c-.2,0-.4-.2-.4-.4s.2-.4.4-.4h8.3c.2,0,.4.2.4.4s-.2.4-.4.4Z"/>
          <path class="cls-1" d="M18.6,14.8h-8.3c-.2,0-.4-.2-.4-.4s.2-.4.4-.4h8.3c.2,0,.4.2.4.4s-.2.4-.4.4Z"/>
          <path class="cls-1" d="M18.6,16.8h-8.3c-.2,0-.4-.2-.4-.4s.2-.4.4-.4h8.3c.2,0,.4.2.4.4s-.2.4-.4.4Z"/>
        </g>
      </g>
    </g>
  </g>
</svg>