<?xml version="1.0" encoding="UTF-8"?>
<svg xmlns="http://www.w3.org/2000/svg" version="1.1" viewBox="0 0 30 30">
  <defs>
    <style>
      .cls-1, .cls-2, .cls-3 {
        fill: none;
      }

      .cls-2, .cls-3 {
        stroke: #848a98;
        stroke-linecap: round;
        stroke-linejoin: round;
      }

      .cls-3 {
        stroke-width: 1.5px;
      }
    </style>
  </defs>
  <!-- Generator: Adobe Illustrator 28.7.0, SVG Export Plug-In . SVG Version: 1.2.0 Build 136)  -->
  <g>
    <g id="Layer_1">
      <g id="Layer_1-2" data-name="Layer_1">
        <g>
          <rect class="cls-1" width="30" height="30"/>
          <g>
            <path class="cls-3" d="M10.2,23.3v-3.3h-3.3M20.1,11.7v-4.4c0-.3-.2-.5-.5-.5H7.4c-.3,0-.5.2-.5.5v13.5c0,1.4,1.1,2.5,2.5,2.5h10.2c.3,0,.5-.2.5-.5v-.9"/>
            <path class="cls-3" d="M20.1,14c1.6,0,2.8,1.3,2.8,2.8s-1.3,2.8-2.8,2.8-2.8-1.3-2.8-2.8,1.3-2.8,2.8-2.8ZM25.8,22.4l-3.5-3.5"/>
            <g>
              <path class="cls-2" d="M11,8.8s-.8-.3-1.5,0-1,.8-.9,1.7.4,1.2.8,1.4c.8.4,1.6,0,1.6,0"/>
              <path class="cls-2" d="M12.4,12v-3.3h1.2c.5,0,.9.2.9,1s-1.1.9-1.1.9h-1"/>
              <path class="cls-2" d="M18.5,10.3c0,1.3-.8,1.6-1.3,1.6h-1.3v-3.3h1.2c1.1,0,1.4.8,1.4,1.7Z"/>
            </g>
          </g>
        </g>
      </g>
    </g>
  </g>
</svg>