<?xml version="1.0" encoding="UTF-8"?>
<svg xmlns="http://www.w3.org/2000/svg" version="1.1" viewBox="0 0 64 57">
  <defs>
    <style>
      .cls-1 {
        fill: #fff;
      }
    </style>
  </defs>
  <!-- Generator: Adobe Illustrator 28.6.0, SVG Export Plug-In . SVG Version: 1.2.0 Build 709)  -->
  <g>
    <g id="Layer_1">
      <path class="cls-1" d="M64,48.8c-.1-1.9-1-3.7-2.4-5-1.4-1.3-3.3-2.1-5.2-2.1-10.1.4-10.1,14.9,0,15.3,1,0,2.1-.2,3-.6,1-.4,1.8-1,2.5-1.8.7-.8,1.3-1.7,1.6-2.7.3-1,.5-2,.4-3.1ZM61.9,47.7c-1.1,1.3-3.9,3.9-5.1,5.2,0,.2-.2.3-.4.4-.2.1-.3.2-.5.2-.2,0-.4,0-.5,0-.2,0-.3-.1-.5-.3l-3.4-3.4c-.1-.1-.2-.2-.3-.4,0-.1,0-.3,0-.4,0-.2,0-.3,0-.4,0-.1.1-.3.2-.4.1-.1.2-.2.4-.3.1,0,.3,0,.4,0,.2,0,.3,0,.4,0s.3.1.4.2l2.6,2.6c.7-.7,3.8-3.8,4.4-4.4.2-.2.5-.3.7-.3.3,0,.5,0,.8.2.2.2.4.4.4.7,0,.3,0,.6-.1.8ZM58.6,39.8l-2.7-22.7c-1.2,0-43,0-45.3,0l3.6,33.6c0,.8.4,1.6,1,2.2.6.6,1.4.9,2.2.9l30.3-.3c-3.5-7.3,3.4-15.7,11.1-13.7ZM15.8,21c0-.3.1-.6.3-.8.2-.2.5-.3.8-.3h10.1c.1,0,.3,0,.4,0,.1,0,.3.1.4.2.1.1.2.2.2.4,0,.1,0,.3,0,.4s0,.3,0,.4c0,.1-.1.3-.2.4-.1.1-.2.2-.4.2-.1,0-.3,0-.4,0h-10.1c-.1,0-.3,0-.4,0-.1,0-.3-.1-.4-.2-.1-.1-.2-.2-.2-.4,0-.1,0-.3,0-.4ZM16.9,26.1c0-.3.1-.6.3-.8.2-.2.5-.3.8-.3h7.3c.3,0,.6.1.8.3.2.2.3.5.3.8s-.1.6-.3.8c-.2.2-.5.3-.8.3h-7.3c-.3,0-.6-.1-.8-.3-.2-.2-.3-.5-.3-.8ZM43,44.5c0,.3,0,.6,0,.8-.1.3-.3.5-.5.7-.2.2-.5.3-.8.3-.3,0-.6,0-.8-.2l-5.4-2.9-5.4,2.9c-.3.1-.5.2-.8.2-.3,0-.6-.1-.8-.3-.2-.2-.4-.4-.5-.7-.1-.3-.1-.6,0-.8l1-6.1-4.4-4.3c-.2-.2-.3-.5-.4-.7,0-.3,0-.6,0-.8,0-.3.2-.5.5-.7s.5-.3.8-.4l6.1-.9,2.7-5.5c.1-.3.3-.5.6-.6.2-.1.5-.2.8-.2s.6,0,.8.2c.2.1.4.4.6.6l2.7,5.5,6,.9c.3,0,.5.2.8.3.2.2.4.4.5.7,0,.3.1.6,0,.8,0,.3-.2.5-.4.7l-4.4,4.3,1,6.1ZM55.6,14.9l-.8-6.5c0-.8-.4-1.5-1-2.1-.6-.6-1.3-.9-2.1-.9h-1c0,1.3.2,3.2-.6,4.4-.5,1.3-4,4.1-4.5,1.5,0-.2,0-.5.2-.7.2-.2.4-.3.6-.4.6-.2,1.1-.5,1.4-1,.4-.5.6-1,.6-1.6,0,0,0-4.3,0-4.4,0-.7-.4-1.4-.9-1.9-.5-.5-1.2-.8-2-.8-.7,0-1.4.3-2,.8-.5.5-.9,1.2-.9,1.9,0,0,0,2.1,0,2.2h-5.6c0,1.3.2,3.2-.6,4.4-.5,1.3-4,4.1-4.5,1.5,0-.2,0-.5.2-.7.2-.2.4-.3.6-.4.6-.2,1.1-.5,1.4-1,.4-.5.6-1,.6-1.6,0,0,0-4.4,0-4.4,0-.8-.4-1.4-1-2-.6-.5-1.3-.8-2-.7-.8,0-1.5.3-2,.9-.5.5-.8,1.3-.8,2v2h-5.3v2.2c0,1.2-.4,2.4-1.1,3.3-.7,1-1.8,1.6-2.9,2-.1,0-.3,0-.4,0-.1,0-.3,0-.4-.1-.1,0-.2-.2-.3-.3,0-.1-.1-.2-.2-.4,0-.1,0-.3,0-.4,0-.1,0-.3.1-.4,0-.1.2-.2.3-.3.1,0,.2-.1.4-.2.7-.2,1.3-.6,1.7-1.2.4-.6.7-1.3.7-2V3.2c0-.9-.4-1.7-1-2.3C20.1.3,19.3,0,18.4,0s-1.7.3-2.3.9c-.6.6-1,1.4-1,2.3v2.2h-4.6c-.2,0-.3,0-.4.1-.1,0-.3.2-.4.3-.1.1-.2.3-.2.4,0,.1,0,.3,0,.5l.9,8.2h45.3ZM44.4,3.4c0-.3.1-.6.3-.8.2-.2.5-.4.8-.4.3,0,.6,0,.8.2.2.2.4.4.5.7,0,0,0,2.1,0,2.2h-2.4v-2ZM30.8,3.4c0-.3.1-.6.3-.8.2-.2.5-.4.8-.4.3,0,.6,0,.8.2.2.2.4.4.5.7,0,0,0,2.1,0,2.2h-2.4v-2ZM17.1,3.2c0-.4.1-.7.4-1,.2-.3.6-.4.9-.4.4,0,.7.1.9.4.3.3.4.6.4.9v2.2h-2.7v-2.2ZM7.3,6.9c.2,2.1,4.5,42.4,4.5,42.4H3.1c-.5,0-1-.2-1.4-.4-.4-.2-.8-.6-1.1-.9-.3-.4-.5-.8-.6-1.3-.1-.5,0-1,0-1.4,0,.6,7.4-40.8,7.2-38.3ZM38.6,32.8l5.3.8-3.8,3.8c-.1.1-.2.3-.3.4,0,.2,0,.4,0,.5l.9,5.3-4.7-2.5c-.2,0-.3-.1-.5-.1s-.4,0-.5.1l-4.7,2.5.9-5.3c0-.2,0-.4,0-.5,0-.2-.1-.3-.3-.4l-3.8-3.8,5.3-.8c.2,0,.3,0,.5-.2.1-.1.3-.2.3-.4l2.4-4.8,2.4,4.8c0,.2.2.3.3.4.1.1.3.2.5.2Z"/>
    </g>
  </g>
</svg>