<?xml version="1.0" encoding="UTF-8"?>
<svg xmlns="http://www.w3.org/2000/svg" version="1.1" viewBox="0 0 60 64">
  <defs>
    <style>
      .cls-1 {
        fill: #fff;
        fill-rule: evenodd;
      }
    </style>
  </defs>
  <!-- Generator: Adobe Illustrator 28.6.0, SVG Export Plug-In . SVG Version: 1.2.0 Build 709)  -->
  <g>
    <g id="Layer_1">
      <path class="cls-1" d="M41,4h-22v-2c0-1.1-.9-2-2-2s-2,.9-2,2v2c-3.9.2-7.6,1.9-10.3,4.7C1.7,11.7,0,15.8,0,20v28c0,4.2,1.7,8.3,4.7,11.3,3,3,7.1,4.7,11.3,4.7h28c4.2,0,8.3-1.7,11.3-4.7,3-3,4.7-7.1,4.7-11.3v-28c0-4.2-1.7-8.3-4.7-11.3-2.8-2.8-6.4-4.4-10.3-4.7v-2c0-1.1-.9-2-2-2s-2,.9-2,2v2ZM41,40c3.3,0,6,2.7,6,6s-2.7,6-6,6-6-2.7-6-6,2.7-6,6-6ZM11.6,47.4l4,4c.8.8,2,.8,2.8,0l8-8c.8-.8.8-2,0-2.8-.8-.8-2-.8-2.8,0l-6.6,6.6-2.6-2.6c-.8-.8-2-.8-2.8,0-.8.8-.8,2,0,2.8ZM33.6,27.4l4,4c.8.8,2,.8,2.8,0l8-8c.8-.8.8-2,0-2.8-.8-.8-2-.8-2.8,0l-6.6,6.6-2.6-2.6c-.8-.8-2-.8-2.8,0-.8.8-.8,2,0,2.8ZM19,20c3.3,0,6,2.7,6,6s-2.7,6-6,6-6-2.7-6-6,2.7-6,6-6Z"/>
    </g>
  </g>
</svg>