<svg width="64" height="57" viewBox="0 0 64 57" fill="none" xmlns="http://www.w3.org/2000/svg">
<path d="M63.98 48.8053C63.8434 46.8783 62.9856 45.0747 61.5792 43.7572C60.1727 42.4396 58.3219 41.7058 56.3988 41.7033C46.3289 42.0778 46.311 56.6093 56.3989 57C57.4438 56.9993 58.4773 56.7823 59.4351 56.3626C60.3928 55.9429 61.2541 55.3294 61.9654 54.5606C62.6767 53.7917 63.2227 52.8838 63.5693 51.8936C63.9159 50.9034 64.0557 49.8521 63.98 48.8053ZM61.8699 47.7128C60.724 48.9797 57.9907 51.6214 56.7796 52.8808C56.6856 53.0398 56.5577 53.176 56.4052 53.2795C56.2526 53.383 56.0791 53.4513 55.8971 53.4795C55.7152 53.5077 55.5293 53.4951 55.3527 53.4426C55.1762 53.3901 55.0134 53.299 54.8761 53.1758L51.5043 49.7887C51.3972 49.6825 51.3119 49.5562 51.2534 49.4169C51.1949 49.2776 51.1643 49.1281 51.1633 48.9769C51.1623 48.8258 51.1909 48.6759 51.2476 48.5358C51.3042 48.3957 51.3878 48.2683 51.4935 48.1607C51.5992 48.053 51.725 47.9674 51.8636 47.9086C52.0023 47.8498 52.1511 47.819 52.3016 47.818C52.4521 47.817 52.6013 47.8458 52.7407 47.9027C52.8801 47.9596 53.0071 48.0436 53.1142 48.1497L55.6811 50.7175C56.352 50.0572 59.4754 46.8946 60.0861 46.3141C60.284 46.121 60.5447 46.0064 60.8202 45.9915C61.0956 45.9765 61.3672 46.0622 61.5846 46.2327C61.802 46.4032 61.9507 46.647 62.0032 46.9191C62.0556 47.1911 62.0083 47.473 61.8699 47.7128ZM58.6409 39.7629L55.899 17.072C54.7165 17.0885 12.9342 17.06 10.5816 17.072L14.161 50.7039C14.2033 51.5179 14.5492 52.286 15.1299 52.8552C15.7107 53.4244 16.4836 53.7529 17.2946 53.7753L47.5535 53.4911C44.014 46.1996 50.9472 37.8197 58.6409 39.7629ZM15.8366 21.0178C15.8375 20.7281 15.9524 20.4506 16.1563 20.2458C16.3601 20.041 16.6364 19.9256 16.9247 19.9248H27.0001C27.1433 19.9243 27.2852 19.9522 27.4176 20.007C27.55 20.0617 27.6704 20.1421 27.7718 20.2436C27.8732 20.3452 27.9536 20.4658 28.0085 20.5987C28.0634 20.7315 28.0917 20.8739 28.0917 21.0178C28.0917 21.1616 28.0634 21.304 28.0085 21.4369C27.9536 21.5697 27.8732 21.6903 27.7718 21.7919C27.6704 21.8934 27.55 21.9739 27.4176 22.0286C27.2852 22.0833 27.1433 22.1112 27.0001 22.1108H16.9247C16.7817 22.1113 16.64 22.0833 16.5077 22.0286C16.3755 21.9738 16.2553 21.8934 16.1542 21.7918C16.0531 21.6902 15.9729 21.5695 15.9184 21.4366C15.8639 21.3038 15.8361 21.1614 15.8366 21.0178ZM16.9247 26.0675C16.9256 25.7779 17.0405 25.5004 17.2443 25.2955C17.4482 25.0907 17.7244 24.9753 18.0128 24.9744H25.3572C25.6457 24.9744 25.9225 25.0896 26.1265 25.2946C26.3306 25.4996 26.4452 25.7776 26.4452 26.0675C26.4452 26.3574 26.3306 26.6354 26.1265 26.8404C25.9225 27.0453 25.6457 27.1605 25.3572 27.1605H18.0128C17.7245 27.1596 17.4482 27.0442 17.2443 26.8394C17.0405 26.6346 16.9256 26.3571 16.9247 26.0675ZM43.0165 44.5284C43.0605 44.8075 43.027 45.0934 42.9195 45.3545C42.812 45.6156 42.6348 45.8417 42.4073 46.008C42.1799 46.1742 41.9112 46.2741 41.6308 46.2965C41.3504 46.319 41.0693 46.2631 40.8185 46.1352L35.4 43.2715L29.9814 46.1352C29.731 46.267 29.4489 46.3259 29.1669 46.3051C28.8849 46.2843 28.6143 46.1848 28.3857 46.0176C28.157 45.8505 27.9795 45.6225 27.8731 45.3593C27.7667 45.0962 27.7357 44.8084 27.7836 44.5284L28.8172 38.4731L24.4323 34.1776C24.2334 33.9776 24.0933 33.7262 24.0275 33.4513C23.9617 33.1764 23.9728 32.8886 24.0594 32.6196C24.1461 32.3506 24.305 32.1108 24.5186 31.9267C24.7322 31.7426 24.9923 31.6213 25.2702 31.5762L31.3307 30.6909L34.0399 25.1821C34.1671 24.9294 34.3615 24.7171 34.6016 24.5687C34.8418 24.4204 35.1181 24.3418 35.4 24.3418C35.6819 24.3418 35.9583 24.4204 36.1984 24.5687C36.4385 24.7171 36.6329 24.9294 36.7601 25.1821L39.4694 30.6909L45.519 31.5762C45.7998 31.6172 46.0637 31.736 46.281 31.9195C46.4982 32.1029 46.6601 32.3437 46.7485 32.6146C46.8384 32.8847 46.8504 33.1748 46.783 33.4514C46.7156 33.728 46.5716 33.9798 46.3676 34.1776L41.9827 38.4731L43.0165 44.5284ZM55.6379 14.886L54.8545 8.42624C54.7938 7.63064 54.4445 6.8851 53.8729 6.33105C53.3013 5.777 52.5471 5.45298 51.7535 5.42046H50.709C50.6763 6.76486 50.8722 8.62299 50.1105 9.7925C49.5868 11.1377 46.1005 13.9246 45.6167 11.2791C45.6252 11.0356 45.7112 10.8012 45.862 10.6104C46.0128 10.4196 46.2205 10.2823 46.4547 10.2188C47.0243 10.0488 47.5281 9.70694 47.8979 9.23967C48.2676 8.7724 48.4855 8.20225 48.522 7.60644C48.5329 7.54086 48.522 3.29998 48.522 3.2344C48.4617 2.50055 48.129 1.81629 47.5898 1.31747C47.0506 0.81866 46.3444 0.541771 45.6114 0.54178C44.8784 0.541788 44.1722 0.818694 43.633 1.31752C43.0938 1.81635 42.761 2.50061 42.7008 3.23447C42.6791 3.28906 42.7008 5.3112 42.6899 5.42046H37.1082C37.0974 6.76486 37.2606 8.62299 36.5098 9.7925C35.9751 11.1387 32.5043 13.9164 32.0051 11.29C32.0104 11.0456 32.0951 10.8096 32.2464 10.6182C32.3978 10.4267 32.6073 10.2903 32.8431 10.2297C33.4139 10.0567 33.9187 9.71285 34.29 9.24415C34.6613 8.77544 34.8815 8.20413 34.9213 7.60644C34.943 7.57372 34.9322 3.2344 34.9213 3.2344C34.8588 2.48306 34.5108 1.7847 33.9496 1.28415C33.3883 0.783611 32.6567 0.519294 31.9067 0.546018C31.1566 0.572742 30.4455 0.888456 29.921 1.42769C29.3964 1.96692 29.0986 2.68829 29.0892 3.44219V5.4205H23.8231V7.60648C23.8258 8.81665 23.4289 9.99356 22.6945 10.9529C21.96 11.9121 20.9296 12.5996 19.7646 12.9076C19.625 12.9414 19.4802 12.9472 19.3384 12.9245C19.1966 12.9019 19.0606 12.8514 18.9383 12.7758C18.816 12.7003 18.7098 12.6012 18.6257 12.4843C18.5417 12.3674 18.4814 12.2349 18.4485 12.0945C18.4155 11.9542 18.4105 11.8086 18.4337 11.6663C18.4569 11.524 18.5078 11.3876 18.5836 11.2651C18.6594 11.1426 18.7585 11.0364 18.8753 10.9525C18.9921 10.8686 19.1243 10.8087 19.2642 10.7763C19.9513 10.5816 20.5561 10.1663 20.9863 9.59401C21.4165 9.02167 21.6485 8.32365 21.6469 7.60648V3.23439C21.6409 2.37449 21.2966 1.55187 20.6892 0.945956C20.0818 0.340042 19.2605 0 18.4045 0C17.5484 0 16.7271 0.340042 16.1197 0.945956C15.5123 1.55187 15.168 2.37449 15.162 3.23439V5.42045H10.5487C10.3955 5.42237 10.2444 5.45649 10.1051 5.5206C9.96585 5.58472 9.84148 5.67741 9.74002 5.79272C9.63856 5.90803 9.56225 6.04339 9.51601 6.19011C9.46976 6.33683 9.45461 6.49165 9.47152 6.64461L10.3528 14.886L55.6379 14.886ZM44.3982 3.44213C44.4045 3.14134 44.5213 2.85351 44.7261 2.634C44.9309 2.41448 45.2092 2.27878 45.5076 2.253C45.806 2.22723 46.1033 2.31319 46.3424 2.49435C46.5815 2.67552 46.7455 2.9391 46.8028 3.23439C46.8355 3.22346 46.8245 5.34394 46.8245 5.42045H44.3982V3.44213ZM30.7975 3.44213C30.801 3.14109 30.9159 2.85213 31.1198 2.63148C31.3237 2.41084 31.602 2.27428 31.9006 2.24837C32.1992 2.22246 32.4967 2.30907 32.7353 2.49133C32.9738 2.67359 33.1363 2.93847 33.1912 3.23445C33.2239 3.22352 33.213 5.34399 33.213 5.42051H30.7975V3.44213ZM17.0662 3.23439C17.065 2.87801 17.2047 2.53573 17.4547 2.2828C17.7046 2.02987 18.0443 1.88698 18.399 1.88553C18.7538 1.88408 19.0946 2.0242 19.3466 2.27508C19.5986 2.52596 19.7411 2.86708 19.7428 3.22346V5.42045H17.0662V3.23439ZM7.30632 6.87416C7.53972 9.00521 11.8109 49.2721 11.8109 49.2721L3.14996 49.272C2.66433 49.2397 2.19142 49.1022 1.76369 48.8689C1.33597 48.6357 0.963561 48.3122 0.67204 47.9207C0.380518 47.5292 0.176788 47.0789 0.0748362 46.6009C-0.0271153 46.1228 -0.0248732 45.6282 0.0814091 45.1511C0.072621 45.7104 7.48231 4.37875 7.30632 6.87416ZM38.588 32.7786L43.8869 33.5436L40.0569 37.3036C39.9279 37.4266 39.8316 37.58 39.7765 37.7499C39.7214 37.9197 39.7093 38.1007 39.7414 38.2764L40.6445 43.5775L35.9005 41.0745C35.7456 40.9885 35.5716 40.9434 35.3946 40.9434C35.2176 40.9434 35.0435 40.9885 34.8886 41.0745L30.1447 43.5775L31.0587 38.2764C31.0881 38.1007 31.0748 37.9205 31.0199 37.7511C30.9649 37.5817 30.87 37.4282 30.7431 37.3036L26.9022 33.5436L32.212 32.7786C32.3852 32.7493 32.5493 32.6796 32.6909 32.5752C32.8326 32.4708 32.9481 32.3346 33.028 32.1774L35.4 27.3463L37.772 32.1774C37.8494 32.3365 37.964 32.4744 38.1062 32.5791C38.2483 32.6838 38.4137 32.7523 38.588 32.7786Z" fill="#009512"/>
</svg>
