<?xml version="1.0" encoding="UTF-8"?>
<svg id="Layer_1" data-name="Layer 1" xmlns="http://www.w3.org/2000/svg" version="1.1" viewBox="0 0 30 30">
  <defs>
    <style>
      .cls-1 {
        stroke-width: 0px;
      }

      .cls-1, .cls-2 {
        fill: none;
      }

      .cls-2 {
        stroke: #848a98;
        stroke-width: 1.5px;
      }
    </style>
  </defs>
  <path class="cls-2" d="M6,8.5c0-1.4,1.1-2.5,2.5-2.5h2c1.4,0,2.5,1.1,2.5,2.5v2c0,1.4-1.1,2.5-2.5,2.5h-2c-1.4,0-2.5-1.1-2.5-2.5v-2Z"/>
  <path class="cls-2" d="M6,19.5c0-1.4,1.1-2.5,2.5-2.5h2c1.4,0,2.5,1.1,2.5,2.5v2c0,1.4-1.1,2.5-2.5,2.5h-2c-1.4,0-2.5-1.1-2.5-2.5v-2Z"/>
  <path class="cls-2" d="M17,8.5c0-1.4,1.1-2.5,2.5-2.5h2c1.4,0,2.5,1.1,2.5,2.5v2c0,1.4-1.1,2.5-2.5,2.5h-2c-1.4,0-2.5-1.1-2.5-2.5v-2Z"/>
  <path class="cls-2" d="M17,20.5c0-1.9,1.6-3.5,3.5-3.5s3.5,1.6,3.5,3.5-1.6,3.5-3.5,3.5-3.5-1.6-3.5-3.5Z"/>
  <rect class="cls-1" width="30" height="30"/>
</svg>