<?xml version="1.0" encoding="UTF-8"?>
<svg id="Layer_1" data-name="Layer 1" xmlns="http://www.w3.org/2000/svg" version="1.1" viewBox="0 0 30 30">
  <defs>
    <style>
      .cls-1, .cls-2, .cls-3, .cls-4 {
        fill: none;
      }

      .cls-1, .cls-3 {
        stroke-width: 1.4px;
      }

      .cls-1, .cls-3, .cls-4 {
        stroke: #848a98;
        stroke-miterlimit: 10;
      }

      .cls-2 {
        stroke-width: 0px;
      }

      .cls-3 {
        stroke-linecap: round;
      }

      .cls-4 {
        stroke-width: 1.5px;
      }
    </style>
  </defs>
  <rect class="cls-2" y="0" width="30" height="30"/>
  <g>
    <path class="cls-1" d="M12,19.3h-4.4c-1.2,0-2.1-.9-2.1-2.1V7.3c0-1.2.9-2.1,2.1-2.1h12.6c1.2,0,2.1.9,2.1,2.1v6.5"/>
    <line class="cls-1" x1="22.3" y1="9.7" x2="5.5" y2="9.7"/>
    <circle class="cls-4" cx="18.2" cy="18.5" r="6.3"/>
    <g>
      <path class="cls-3" d="M16,20.5c.2.5.7.9,1.3.9h1.8c.8,0,1.4-.6,1.4-1.4s-.6-1.4-1.4-1.4h-1.8c-.8,0-1.4-.6-1.4-1.4s.6-1.4,1.4-1.4h1.8c.5,0,1,.3,1.2.7"/>
      <line class="cls-3" x1="18.2" y1="14.5" x2="18.2" y2="15.7"/>
      <line class="cls-3" x1="18.2" y1="21.4" x2="18.2" y2="22.5"/>
    </g>
  </g>
</svg>