<svg width="64" height="62" viewBox="0 0 64 62" fill="none" xmlns="http://www.w3.org/2000/svg">
<path fill-rule="evenodd" clip-rule="evenodd" d="M44.8838 13.548C44.8841 13.3404 44.9667 13.1414 45.1138 12.9944C45.2608 12.8474 45.4603 12.7643 45.6685 12.7635H48.8609C49.0698 12.7635 49.2701 12.8462 49.4178 12.9934C49.5655 13.1406 49.6484 13.3402 49.6484 13.5484C49.6484 13.7566 49.5655 13.9562 49.4178 14.1034C49.2701 14.2506 49.0698 14.3333 48.8609 14.3333H45.6685C45.4601 14.3324 45.2606 14.2492 45.1135 14.1021C44.9665 13.9549 44.8839 13.7557 44.8838 13.548ZM34.8459 7.13158C36.2121 7.13203 37.5474 7.5362 38.6832 8.29299C39.8189 9.04979 40.7039 10.1252 41.2264 11.3833C41.7489 12.6414 41.8854 14.0257 41.6186 15.3611C41.3518 16.6965 40.6937 17.9231 39.7276 18.8857C38.7614 19.8484 37.5305 20.5039 36.1905 20.7694C34.8506 21.0348 33.4617 20.8984 32.1996 20.3772C30.9374 19.856 29.8587 18.9736 29.0997 17.8414C28.3408 16.7092 27.9357 15.3782 27.9357 14.0165C27.9364 12.1904 28.6647 10.4392 29.9605 9.14812C31.2564 7.85703 33.0136 7.13169 34.8459 7.13158ZM34.8459 22.4715C36.5239 22.4723 38.1644 21.9771 39.56 21.0485C40.9556 20.12 42.0436 18.7998 42.6863 17.2549C43.329 15.71 43.4976 14.0099 43.1707 12.3695C42.8438 10.7292 42.0362 9.22227 40.8499 8.03941C39.6637 6.85656 38.1522 6.0509 36.5065 5.72434C34.8608 5.39777 33.1549 5.56497 31.6045 6.20479C30.0542 6.84461 28.729 7.9283 27.7967 9.31879C26.8644 10.7093 26.3667 12.3441 26.3667 14.0165C26.3698 16.2573 27.264 18.4054 28.8534 19.9903C30.4427 21.5751 32.5977 22.4674 34.8459 22.4715ZM33.2408 12.1014C33.2408 12.5067 33.4945 12.912 34.061 13.1088V11.094C33.4945 11.2898 33.2408 11.6975 33.2408 12.1014ZM36.451 15.9307C36.451 15.5253 36.1914 15.12 35.6308 14.9232V16.9381C35.8064 16.8788 35.9688 16.786 36.1088 16.6649C36.2146 16.5734 36.2997 16.4608 36.3587 16.3342C36.4177 16.2077 36.4491 16.0702 36.451 15.9307ZM33.2113 15.9307C33.2111 15.7229 33.1285 15.5237 32.9814 15.3765C32.8344 15.2292 32.6348 15.146 32.4264 15.1449C32.2168 15.1456 32.0158 15.2284 31.8668 15.3753C31.7178 15.5223 31.6327 15.7217 31.6299 15.9307C31.6299 17.1898 32.6684 18.2507 34.061 18.5464V18.7371C34.061 18.9446 34.1437 19.1435 34.2909 19.2902C34.4381 19.4369 34.6377 19.5193 34.8459 19.5193C35.0541 19.5193 35.2537 19.4369 35.4009 19.2902C35.5481 19.1435 35.6308 18.9446 35.6308 18.7371V18.5563C36.1998 18.4595 36.7308 18.2076 37.165 17.8284C37.4331 17.5892 37.6483 17.2969 37.7967 16.9701C37.9451 16.6433 38.0234 16.2893 38.0267 15.9307C38.0267 14.7696 37.2064 13.5964 35.6308 13.302V11.1161C36.1265 11.3118 36.4746 11.6835 36.4746 12.0998C36.4746 12.3088 36.5579 12.5093 36.7062 12.6571C36.8545 12.8049 37.0557 12.8879 37.2654 12.8879C37.4751 12.8879 37.6763 12.8049 37.8246 12.6571C37.9729 12.5093 38.0562 12.3088 38.0562 12.0998C38.0562 10.8392 37.0234 9.77933 35.6308 9.48405V9.29214C35.6308 9.08467 35.5481 8.88569 35.4009 8.73899C35.2537 8.59229 35.0541 8.50987 34.8459 8.50987C34.6377 8.50987 34.4381 8.59229 34.2909 8.73899C34.1437 8.88569 34.061 9.08467 34.061 9.29214V9.47453C33.4912 9.56875 32.9595 9.82104 32.5268 10.2025C32.2576 10.4408 32.0418 10.733 31.8934 11.0599C31.7449 11.3869 31.6672 11.7413 31.6653 12.1002C31.6653 13.261 32.4856 14.4344 34.061 14.7285V16.9131C33.5596 16.7186 33.2113 16.3445 33.2113 15.9294V15.9307ZM20.0395 13.548C20.0399 13.4443 20.0609 13.3417 20.1012 13.2461C20.1416 13.1505 20.2004 13.0638 20.2744 12.9909C20.3484 12.918 20.4362 12.8604 20.5326 12.8214C20.6289 12.7824 20.7321 12.7627 20.8362 12.7635H24.0168C24.2256 12.7635 24.4259 12.8462 24.5736 12.9934C24.7213 13.1406 24.8043 13.3402 24.8043 13.5484C24.8043 13.7566 24.7213 13.9562 24.5736 14.1034C24.4259 14.2506 24.2256 14.3333 24.0168 14.3333H20.8368C20.7326 14.3342 20.6293 14.3145 20.5328 14.2755C20.4363 14.2365 20.3484 14.1788 20.2743 14.1058C20.2003 14.0328 20.1414 13.946 20.1011 13.8503C20.0608 13.7545 20.0398 13.6518 20.0395 13.548ZM16.9179 7.13543V20.8978L17.3426 20.9615C17.9543 21.0589 18.5194 21.3466 18.9571 21.7834C19.3948 22.2201 19.6828 22.7837 19.7798 23.3934L19.8447 23.8111H49.8465L49.9116 23.3934C50.0108 22.7836 50.3002 22.2205 50.7387 21.7839C51.1772 21.3474 51.7425 21.0596 52.3545 20.9615L52.7735 20.8978V7.13462L52.3545 7.07099C51.7426 6.9726 51.1774 6.68474 50.7389 6.24824C50.3005 5.81174 50.011 5.24874 49.9116 4.63908L49.8465 4.22139H19.8453L19.7804 4.63908C19.6832 5.2487 19.3951 5.8121 18.9574 6.24884C18.5197 6.68558 17.9548 6.97332 17.3432 7.07099L16.9179 7.13543ZM17.1009 22.5126C17.3815 22.559 17.6405 22.6918 17.8416 22.8924C18.0427 23.0929 18.1757 23.3512 18.2221 23.6309L18.3874 24.7143C18.4166 24.8995 18.5111 25.0682 18.6538 25.1902C18.7966 25.3123 18.9783 25.3796 19.1664 25.3803H50.5197C50.7083 25.3814 50.8909 25.3147 51.034 25.1923C51.1771 25.07 51.271 24.9002 51.2985 24.7143L51.4697 23.6309C51.5144 23.3495 51.6476 23.0895 51.8502 22.8885C52.0528 22.6875 52.3143 22.5558 52.5968 22.5126L53.6768 22.3454C53.8625 22.3167 54.0318 22.2228 54.1541 22.0806C54.2765 21.9383 54.3437 21.7572 54.3437 21.5699V6.46139C54.3439 6.274 54.2767 6.09275 54.1544 5.95047C54.032 5.80819 53.8626 5.7143 53.6768 5.68581L52.5968 5.51862C52.3139 5.47574 52.0521 5.34405 51.8494 5.14269C51.6467 4.94132 51.5137 4.68078 51.4697 4.39892L51.2985 3.31713C51.2711 3.13119 51.1772 2.96138 51.0341 2.83903C50.891 2.71668 50.7083 2.65004 50.5197 2.65139H19.1668C18.9787 2.65187 18.797 2.71916 18.6542 2.84118C18.5114 2.9632 18.417 3.13195 18.3878 3.31713L18.2225 4.39892C18.1769 4.67913 18.0442 4.93799 17.843 5.13891C17.6418 5.33983 17.3823 5.47265 17.1013 5.51862L16.0096 5.68581C15.8244 5.71459 15.6557 5.80875 15.5344 5.95113C15.4131 6.09351 15.3472 6.27461 15.3487 6.46139V21.569C15.3474 21.7558 15.4134 21.9368 15.5347 22.0791C15.656 22.2214 15.8245 22.3156 16.0096 22.3446L17.1009 22.5126ZM54.0241 28.031C54.814 28.0312 55.5717 27.7186 56.1305 27.1621C56.6893 26.6057 57.0036 25.8508 57.0042 25.0635V2.96774C57.0034 2.18048 56.689 1.42572 56.1303 0.869262C55.5715 0.312807 54.814 0.000160704 54.0241 0H15.6614C14.8725 0.00139514 14.1162 0.314625 13.5587 0.870982C13.0011 1.42734 12.6877 2.18139 12.6872 2.96774V25.0627C12.6874 25.8491 13.0008 26.6033 13.5584 27.1597C14.116 27.7161 14.8724 28.0292 15.6614 28.0302L54.0241 28.031ZM8.62699 43.5442C8.62699 43.4097 8.58694 43.2783 8.51192 43.1665C8.4369 43.0547 8.33028 42.9677 8.20557 42.9163C8.08086 42.865 7.94367 42.8517 7.81138 42.8782C7.67909 42.9046 7.55765 42.9696 7.46244 43.0649C7.36723 43.1602 7.30254 43.2815 7.27657 43.4134C7.25059 43.5454 7.26449 43.6821 7.31652 43.8061C7.36854 43.9302 7.45635 44.0361 7.56881 44.1104C7.68127 44.1847 7.81332 44.2241 7.94825 44.2235C8.03763 44.2236 8.12615 44.206 8.20871 44.1719C8.29127 44.1377 8.36625 44.0876 8.42932 44.0245C8.4924 43.9614 8.54233 43.8864 8.57625 43.804C8.61017 43.7216 8.62742 43.6333 8.62699 43.5442ZM5.69405 43.5442C5.69353 43.0991 5.82552 42.6638 6.07332 42.2935C6.32111 41.9231 6.67358 41.6344 7.08609 41.4638C7.49861 41.2932 7.95263 41.2484 8.3907 41.3351C8.82876 41.4218 9.23117 41.6361 9.54699 41.9509C9.86281 42.2656 10.0778 42.6666 10.1649 43.1032C10.2519 43.5398 10.207 43.9924 10.0359 44.4035C9.86475 44.8147 9.57508 45.166 9.20354 45.413C8.83199 45.66 8.39527 45.7916 7.94866 45.7911C7.35083 45.7903 6.77771 45.5532 6.3551 45.1318C5.93248 44.7104 5.69489 44.139 5.69446 43.5432L5.69405 43.5442ZM62.9349 34.7176C63.6167 34.0383 63.9998 33.1168 64 32.1559C64.0002 31.1951 63.6173 30.2735 62.9357 29.5939C62.2541 28.9144 61.3296 28.5326 60.3655 28.5324C59.4014 28.5323 58.4768 28.9138 57.7949 29.5931L49.2619 38.0967C49.1756 39.3692 48.6079 40.5615 47.6736 41.4329C46.7393 42.3043 45.5079 42.7897 44.2283 42.7911H31.4467C31.24 42.7878 31.0429 42.7037 30.8979 42.5568C30.7529 42.41 30.6716 42.2122 30.6716 42.0061C30.6716 41.8001 30.7529 41.6023 30.8979 41.4555C31.0429 41.3086 31.24 41.2244 31.4467 41.2211H44.2285C44.6846 41.2211 45.1363 41.1316 45.5577 40.9576C45.9791 40.7836 46.362 40.5286 46.6846 40.2072C47.0071 39.8857 47.2629 39.5041 47.4375 39.0841C47.6121 38.6641 47.7019 38.2139 47.7019 37.7593C47.7019 37.3047 47.6121 36.8545 47.4375 36.4345C47.2629 36.0145 47.0071 35.6329 46.6846 35.3114C46.362 34.99 45.9791 34.735 45.5577 34.561C45.1363 34.387 44.6846 34.2975 44.2285 34.2975H31.4467C31.2891 34.2967 31.1352 34.2499 31.004 34.1629C28.8206 32.6904 23.008 32.1381 17.8388 33.6629C15.3603 34.3925 12.1795 35.8517 10.7868 38.6751L21.2672 52.8741L24.0349 50.8693C24.7293 50.3567 25.5726 50.0839 26.4367 50.0923H45.3794C46.0564 50.1062 46.7289 49.9802 47.3545 49.722C47.9802 49.4639 48.5454 49.0794 49.0144 48.5927L62.9349 34.7176ZM13.1948 62L0 44.1254L8.33825 38.0051L21.533 55.8811L13.1948 62Z" fill="#009512"/>
</svg>
