<?xml version="1.0" encoding="UTF-8"?>
<svg xmlns="http://www.w3.org/2000/svg" xmlns:xlink="http://www.w3.org/1999/xlink" version="1.1" viewBox="0 0 60 60">
  <defs>
    <style>
      .cls-1 {
        fill: none;
      }

      .cls-2 {
        fill: #fff;
      }

      .cls-3 {
        clip-path: url(#clippath);
      }
    </style>
    <clipPath id="clippath">
      <rect class="cls-1" y="0" width="60" height="60"/>
    </clipPath>
  </defs>
  <!-- Generator: Adobe Illustrator 28.6.0, SVG Export Plug-In . SVG Version: 1.2.0 Build 709)  -->
  <g>
    <g id="Layer_1">
      <g class="cls-3">
        <path class="cls-2" d="M0,53.9c0,2.3,1.9,4.2,4.2,4.2h51.6c2.3,0,4.2-1.9,4.2-4.2V14.1H0v39.8ZM6.9,21.5c0-1,.8-1.7,1.7-1.7h42.7c1,0,1.7.8,1.7,1.7v27.2c0,1-.8,1.7-1.7,1.7H8.7c-1,0-1.7-.8-1.7-1.7v-27.2ZM55.8,1.9H4.2C1.9,1.9,0,3.8,0,6.1v6h60v-6c0-2.3-1.9-4.2-4.2-4.2ZM7.8,8.6c-.9,0-1.6-.7-1.6-1.6s.7-1.6,1.6-1.6,1.6.7,1.6,1.6-.7,1.6-1.6,1.6ZM13.9,8.6c-.9,0-1.6-.7-1.6-1.6s.7-1.6,1.6-1.6,1.6.7,1.6,1.6c0,.9-.7,1.6-1.6,1.6ZM20,8.6c-.9,0-1.6-.7-1.6-1.6s.7-1.6,1.6-1.6,1.6.7,1.6,1.6c0,.9-.7,1.6-1.6,1.6ZM53.7,8h-27.1c-.5,0-1-.4-1-1s.4-1,1-1h27.1c.5,0,1,.4,1,1s-.4,1-1,1ZM12.8,44.4v-3.9c0-2.2,1.1-4.1,2.8-5.3,1.3,1.5,3.2,2.4,5.4,2.4s4-.9,5.4-2.4c1.7,1.2,2.8,3.1,2.8,5.3v3.9c0,.5-.4.9-.9.9h-14.4c-.5,0-.9-.4-.9-.9ZM15.6,30.2c0-2.9,2.4-5.3,5.3-5.3s5.3,2.4,5.3,5.3-2.4,5.3-5.3,5.3-5.3-2.4-5.3-5.3ZM33.8,27.1c0-.5.4-.9.9-.9h12.5c.5,0,.9.4.9.9s-.4.9-.9.9h-12.5c-.5,0-.9-.4-.9-.9ZM33.8,35.1c0-.5.4-.9.9-.9h12.5c.5,0,.9.4.9.9s-.4.9-.9.9h-12.5c-.5,0-.9-.4-.9-.9ZM33.8,43c0-.5.4-.9.9-.9h12.5c.5,0,.9.4.9.9s-.4.9-.9.9h-12.5c-.5,0-.9-.4-.9-.9Z"/>
      </g>
    </g>
  </g>
</svg>