<svg width="60" height="60" viewBox="0 0 60 60" fill="none" xmlns="http://www.w3.org/2000/svg">
<g clip-path="url(#clip0_30_617)">
<path d="M-0.00115967 53.8722C-0.00115967 56.1714 1.88204 58.0511 4.18126 58.0511H55.8223C58.1215 58.0511 60.0012 56.1714 60.0012 53.8722V14.0565H-0.00115967V53.8722ZM6.92462 21.4616C6.92462 20.5054 7.70509 19.7237 8.66251 19.7237H51.3387C52.2949 19.7237 53.0766 20.5042 53.0766 21.4616V48.7112C53.0766 49.6675 52.2961 50.4491 51.3387 50.4491H8.66251C7.70626 50.4491 6.92462 49.6687 6.92462 48.7112V21.4616ZM55.8223 1.94873H4.18126C1.88204 1.94873 -0.00115967 3.82842 -0.00115967 6.12764V12.1206H60.0012V6.12764C60.0012 3.82842 58.1215 1.94873 55.8223 1.94873ZM7.82462 8.59912C6.96447 8.59912 6.26017 7.89482 6.26017 7.03467C6.26017 6.171 6.96447 5.47021 7.82462 5.47021C8.68829 5.47021 9.39259 6.171 9.39259 7.03467C9.39259 7.89482 8.68829 8.59912 7.82462 8.59912ZM13.8902 8.59912C13.0301 8.59912 12.3258 7.89482 12.3258 7.03467C12.3258 6.171 13.0301 5.47021 13.8902 5.47021C14.7539 5.47021 15.4547 6.171 15.4547 7.03467C15.4559 7.89482 14.7539 8.59912 13.8902 8.59912ZM19.9559 8.59912C19.0957 8.59912 18.3914 7.89482 18.3914 7.03467C18.3914 6.171 19.0957 5.47021 19.9559 5.47021C20.8195 5.47021 21.5203 6.171 21.5203 7.03467C21.5215 7.89482 20.8195 8.59912 19.9559 8.59912ZM53.7399 8.00146H26.6731C26.1387 8.00146 25.7063 7.56904 25.7063 7.03467C25.7063 6.50029 26.1387 6.06787 26.6731 6.06787H53.7399C54.2742 6.06787 54.7067 6.50029 54.7067 7.03467C54.7067 7.56904 54.2742 8.00146 53.7399 8.00146ZM12.8016 44.3624V40.4331C12.8016 38.237 13.8949 36.2847 15.5625 35.0917C16.8879 36.5495 18.8016 37.4671 20.9274 37.4671C23.0531 37.4671 24.9668 36.5507 26.2922 35.0917C27.9633 36.2847 29.0531 38.237 29.0531 40.4331V44.3624C29.0531 44.8675 28.6442 45.2788 28.1391 45.2788H13.7145C13.2129 45.2788 12.8016 44.8663 12.8016 44.3624ZM15.6117 30.2108C15.6117 27.2847 18 24.8964 20.9262 24.8964C23.8559 24.8964 26.2442 27.2847 26.2442 30.2108C26.2442 33.1405 23.8559 35.5288 20.9262 35.5288C18 35.5288 15.6117 33.1405 15.6117 30.2108ZM33.7817 27.1253C33.7817 26.6073 34.2035 26.1854 34.718 26.1854H47.1985C47.7164 26.1854 48.1383 26.6073 48.1383 27.1253C48.1383 27.6397 47.7164 28.0616 47.1985 28.0616H34.718C34.2035 28.0616 33.7817 27.6397 33.7817 27.1253ZM33.7817 35.087C33.7817 34.569 34.2035 34.1507 34.718 34.1507H47.1985C47.7164 34.1507 48.1383 34.569 48.1383 35.087C48.1383 35.605 47.7164 36.0233 47.1985 36.0233H34.718C34.2035 36.0245 33.7817 35.605 33.7817 35.087ZM33.7817 43.0499C33.7817 42.5319 34.2035 42.1136 34.718 42.1136H47.1985C47.7164 42.1136 48.1383 42.5319 48.1383 43.0499C48.1383 43.5679 47.7164 43.9862 47.1985 43.9862H34.718C34.2035 43.9862 33.7817 43.5679 33.7817 43.0499Z" fill="#009512"/>
</g>
<defs>
<clipPath id="clip0_30_617">
<rect width="60" height="60" fill="white"/>
</clipPath>
</defs>
</svg>
